<svg width="20" height="22" viewBox="0 0 20 22" fill="none" xmlns="http://www.w3.org/2000/svg">
<path d="M12.7185 11.8543L13.4013 11.317C14.3 10.61 14.956 9.64039 15.278 8.54316C15.5999 7.44593 15.5719 6.27562 15.1978 5.19506C14.8237 4.11449 14.1221 3.1774 13.1905 2.51416C12.259 1.85092 11.144 1.49451 10.0005 1.49451C8.85699 1.49451 7.74192 1.85092 6.81042 2.51416C5.87892 3.1774 5.1773 4.11449 4.80318 5.19506C4.42906 6.27562 4.40104 7.44593 4.72302 8.54316C5.04499 9.64039 5.70096 10.61 6.59965 11.317L7.2799 11.8522L6.47644 12.1741C4.88051 12.8135 3.48801 13.874 2.44738 15.2426C1.40676 16.6111 0.75702 18.2364 0.567436 19.9451L0.070485 19.89M12.7185 11.8543L2.07049 20.11C2.29007 18.1552 3.22217 16.3498 4.6887 15.0388C6.15524 13.7278 8.05338 13.003 10.0205 13.003C11.9876 13.003 13.8857 13.7278 15.3523 15.0388C16.8188 16.3498 17.7509 18.1552 17.9705 20.11C17.9977 20.3557 18.1149 20.5827 18.2996 20.747C18.4843 20.9114 18.7233 21.0015 18.9705 21H19.0805M12.7185 11.8543L13.526 12.1747C15.1286 12.8107 16.5279 13.8709 17.5739 15.2415C18.6195 16.6118 19.2727 18.2407 19.4634 19.9538M12.7185 11.8543L19.9605 19.9M0.070485 19.89L0.567487 19.9447C0.560221 20.0107 0.566037 20.0776 0.584602 20.1414C0.603167 20.2052 0.634118 20.2647 0.675688 20.3166L0.285596 20.6293L0.675688 20.3166C0.759642 20.4213 0.881751 20.4883 1.01515 20.503C1.14856 20.5177 1.28233 20.4788 1.38703 20.3948C1.49174 20.3108 1.55881 20.1887 1.57348 20.0553L1.57361 20.0542C1.80692 17.9772 2.79728 16.059 4.35547 14.666C5.91366 13.2731 7.93044 12.503 10.0205 12.503C12.1105 12.503 14.1273 13.2731 15.6855 14.666C17.2437 16.059 18.234 17.9772 18.4674 20.0542L18.4675 20.055C18.481 20.1779 18.5397 20.2913 18.632 20.3735C18.7243 20.4557 18.8438 20.5008 18.9675 20.5L18.9705 20.5L19.0469 20.5M0.070485 19.89C0.270048 18.0913 0.953983 16.3805 2.04938 14.9399C3.03117 13.6488 4.31051 12.6181 5.77489 11.9336L0.070485 19.89ZM19.0469 20.5C19.0391 20.5013 19.0312 20.5024 19.0233 20.5033L19.0805 21M19.0469 20.5H19.0805V21M19.0469 20.5C19.1687 20.4801 19.2792 20.4157 19.3566 20.3189C19.4389 20.216 19.4773 20.0848 19.4634 19.9538M19.0805 21C19.3426 20.9698 19.5822 20.8373 19.747 20.6313C19.9119 20.4252 19.9886 20.1624 19.9605 19.9M19.9605 19.9L19.4635 19.9552C19.4635 19.9548 19.4634 19.9543 19.4634 19.9538M19.9605 19.9L19.4633 19.9533C19.4633 19.9535 19.4634 19.9536 19.4634 19.9538M7.50042 10.7416C8.24044 11.2361 9.11047 11.5 10.0005 11.5C11.194 11.5 12.3386 11.0259 13.1825 10.182C14.0264 9.33807 14.5005 8.19348 14.5005 7C14.5005 6.10999 14.2366 5.23996 13.7421 4.49994C13.2476 3.75992 12.5448 3.18314 11.7226 2.84254C10.9003 2.50195 9.99549 2.41284 9.12258 2.58647C8.24967 2.7601 7.44784 3.18869 6.8185 3.81802C6.18917 4.44736 5.76058 5.24918 5.58695 6.1221C5.41332 6.99501 5.50243 7.89981 5.84303 8.72208C6.18362 9.54435 6.7604 10.2471 7.50042 10.7416Z" stroke="#2EBB72"/>
</svg>
